<svg id="Layer_1" data-name="Layer 1" xmlns="http://www.w3.org/2000/svg" viewBox="0 0 1776.53 1734.97"><title>d20 black</title><path d="M2386.19,1756.53,2097,889.1h0a41.3,41.3,0,0,0-27.46-26.65L1305.41,635.25h0a41.34,41.34,0,0,0-41.32,10.53L623.84,1286h0a41.27,41.27,0,0,0-9.91,42.54l309.8,908.74a41.31,41.31,0,0,0,33.87,27.89l743.52,103.27h5.56a41.29,41.29,0,0,0,27.06-10.13L2374,1800.72a41.31,41.31,0,0,0,12.19-44.2ZM992.91,2182.61l147.88-721.83L1824,2163Zm1090.89-1039-928,246.18L1301.65,734Zm-970.7,250.31-394.48-85.7,531.19-530Zm746,745.76L1167.83,1429.4l939.09-249.29,2.48,7.23-247.83,950ZM2078.43,1094,1448.1,763.51l578.29,171.62ZM708.31,1348.22,1104,1434.35l-137.55,671Zm985.38,935.37-472.33-65.48,562.39-12.81Zm224.09-195,215.62-829.45,165.23,497.34Zm-569.62-866.4a144.66,144.66,0,0,1,38.2-78.91,350,350,0,0,0,38-53.27,50.38,50.38,0,0,0,1.44-43.38,55.09,55.09,0,0,0-23.34-26.44,48.33,48.33,0,0,0-35.93-4.34c-18.58,4.13-28.5,13.23-30.15,27.06a90,90,0,0,0,7.43,35.94l-62,14.46h0a124,124,0,0,1-8.67-62c5.37-31.19,28.91-51,70.22-60.1h0a136.67,136.67,0,0,1,87,6.4,108.91,108.91,0,0,1,56.39,56,78.89,78.89,0,0,1,4.34,59.07,154.35,154.35,0,0,1-27.89,47.1l-17.56,22.3q-16.73,20.66-22.3,30.35a58.5,58.5,0,0,0-5.78,19.42L1554.27,1176l22.92,50.6-219.74,59.69a139.58,139.58,0,0,1-9.29-64Zm308.36-282.74a268.65,268.65,0,0,1,70.84,94,216.4,216.4,0,0,1,30.35,109c-2.06,28.91-21.9,48.74-59.27,58.87a105.53,105.53,0,0,1-98.31-16.94,268.68,268.68,0,0,1-72.91-101.81,202.11,202.11,0,0,1-24.78-108.44c4.13-26.85,24.58-44.2,62-52.25a107,107,0,0,1,92.12,17.56Zm-26,199.52h0a44,44,0,0,0,46.48,16.74,26.66,26.66,0,0,0,20.66-34.29,283.77,283.77,0,0,0-27.47-73.73,309.84,309.84,0,0,0-42.54-69,43.15,43.15,0,0,0-43.38-14.67,25.6,25.6,0,0,0-22.1,30.15,261.26,261.26,0,0,0,25.41,73.11,316.4,316.4,0,0,0,42.95,71.66Z" transform="translate(-611.73 -633.51)"/></svg>