<svg id="Layer_1" data-name="Layer 1" xmlns="http://www.w3.org/2000/svg" viewBox="0 0 1645.47 1590.76"><defs><style>.cls-1{fill:#017bff;}</style></defs><title>d12 blue</title><path class="cls-1" d="M1223.37,1161.7l-37.83-41.44a399.87,399.87,0,0,0,47.48-35,64.71,64.71,0,0,0,22.33-37.83,48,48,0,0,0-5.49-28.75,50.44,50.44,0,0,0-8.13-12.68l59.39-35.95,320.09,304.76-78.89,57.89-227-229.28Zm384.6,5.86q-19.3-42.28-1.32-113.51A410.14,410.14,0,0,0,1621,975.92a64,64,0,0,0-25.35-50.33,87.58,87.58,0,0,0-43.89-18.91,68.86,68.86,0,0,0-46,10c-20.24,12.3-27.43,26.48-21.38,42.57a115.65,115.65,0,0,0,29.89,37.83l-67.72,43a160.6,160.6,0,0,1-45-66.6c-10.21-36.9,7.56-68.49,52.78-94.59A190.5,190.5,0,0,1,1562,850.5a173.94,173.94,0,0,1,100.83,37.83,106.13,106.13,0,0,1,42.56,62.81,167.36,167.36,0,0,1-4.16,65.64l-7.19,33.86a417.64,417.64,0,0,0-8.33,46.16,67.88,67.88,0,0,0,3.22,27.82l147-103.67,64.32,49.75-238.36,175a219.19,219.19,0,0,1-53.92-78.13Zm711.88,281.68L2157.34,1052h0a37.73,37.73,0,0,0-12.3-16.09L1712,711.46a37.79,37.79,0,0,0-28.37-6.24L1088,794.5a37.82,37.82,0,0,0-22.33,12.11L885,1005.05a41.07,41.07,0,0,0-7.19,11.55L679.51,1522.08a37.93,37.93,0,0,0,0,25.72L742.7,1737h0a41.12,41.12,0,0,0,7.56,13.06l397.27,451.19a37.57,37.57,0,0,0,8.88,7.38l135.26,81.15h0a37.81,37.81,0,0,0,18.91,5.49,44.36,44.36,0,0,0,7,0L1804.95,2205h0a45.92,45.92,0,0,0,10.78-3.79l306.48-162.69a39,39,0,0,0,18.91-21.38l179.71-541.62a37.84,37.84,0,0,0-.94-26.3Zm-243.1-369.64L1631.61,1443l-588-225.69,80.59-351.7,555.24-84.74ZM945.85,1050.84l130-142.83-72.44,315L793,1651.1l-37.83-114.65Zm-134.51,655.3-2.07-3.6,221.52-448.72,587.4,223.6,85.88,532-501.32,139.8-3.4-2.08ZM1785,2131.42l-467.64,87.21-70-42,481.46-134.12,276.21-26.87ZM2076.74,1970l-334.85,33.48-86.45-532.13,443.82-361.53,145.29,355.08Z" transform="translate(-677.27 -704.62)"/></svg>